<?xml version="1.0" standalone="no"?>
<!DOCTYPE svg PUBLIC "-//W3C//DTD SVG 20010904//EN"
 "http://www.w3.org/TR/2001/REC-SVG-20010904/DTD/svg10.dtd">
<svg version="1.0" xmlns="http://www.w3.org/2000/svg"
 width="512.000000pt" height="512.000000pt" viewBox="0 0 512.000000 512.000000"
 preserveAspectRatio="xMidYMid meet">

<g transform="translate(0.000000,512.000000) scale(0.100000,-0.100000)"
fill="#000000" stroke="none">
<path d="M626 5099 l-26 -20 0 -1308 c0 -1423 -3 -1340 55 -1355 23 -6 25 -11
25 -62 0 -43 -4 -56 -17 -61 -10 -3 -28 -15 -40 -26 -21 -18 -23 -30 -23 -114
0 -86 2 -96 25 -118 13 -14 31 -25 40 -25 12 0 15 -15 15 -90 0 -87 -1 -90
-25 -96 -57 -14 -55 27 -55 -915 l0 -868 26 -20 27 -21 1912 0 1912 0 27 21
26 20 0 2130 c0 1483 -3 2136 -11 2150 -5 11 -21 24 -35 29 -22 9 -24 15 -24
72 1 60 2 64 33 83 l32 20 3 277 2 276 -26 21 -27 21 -1912 0 -1912 0 -27 -21z
m3374 -689 c0 -179 1 -190 20 -200 18 -10 20 -21 20 -126 0 -111 -1 -115 -20
-109 -19 6 -20 2 -20 -109 0 -106 2 -115 20 -121 13 -4 20 -15 20 -33 l0 -27
-1262 2 c-695 0 -1359 2 -1475 2 l-213 1 0 295 0 296 -25 24 c-13 14 -31 25
-40 25 -11 0 -15 11 -15 45 0 34 4 45 15 45 9 0 27 11 40 25 22 21 25 33 25
90 l0 65 1455 0 1455 0 0 -190z m-2460 -1705 l0 -105 -225 0 -225 0 0 105 0
105 225 0 225 0 0 -105z m830 0 l0 -105 -225 0 -225 0 0 105 0 105 225 0 225
0 0 -105z m840 0 l0 -105 -225 0 -225 0 0 105 0 105 225 0 225 0 0 -105z m830
-4 c0 -94 3 -112 21 -135 11 -14 29 -26 40 -26 16 0 19 -7 19 -44 0 -36 -4
-46 -20 -51 -11 -3 -29 -18 -40 -32 -19 -24 -20 -40 -20 -254 l0 -229 -225 0
-225 0 0 440 0 440 225 0 225 0 0 -109z m-2502 -668 l3 -103 -226 0 -225 0 0
105 0 105 223 -2 222 -3 3 -102z m832 2 l0 -105 -225 0 -225 0 0 98 c0 54 3
102 7 105 3 4 105 7 225 7 l218 0 0 -105z m838 -2 l3 -103 -226 0 -225 0 0
105 0 105 223 -2 222 -3 3 -102z m-1668 -673 l0 -100 -225 0 -225 0 0 100 0
100 225 0 225 0 0 -100z m830 0 l0 -100 -225 0 -225 0 0 100 0 100 225 0 225
0 0 -100z m840 0 l0 -100 -225 0 -225 0 0 100 0 100 225 0 225 0 0 -100z m830
0 l0 -100 -225 0 -225 0 0 100 0 100 225 0 225 0 0 -100z m-2500 -675 l0 -105
-225 0 -225 0 0 105 0 105 225 0 225 0 0 -105z m830 0 l0 -105 -225 0 -225 0
0 105 0 105 225 0 225 0 0 -105z m838 3 l-3 -103 -222 -3 -223 -2 0 105 0 105
225 0 226 0 -3 -102z"/>
<path d="M1305 4023 c-59 -15 -86 -92 -47 -131 17 -17 45 -19 303 -25 307 -8
394 -1 416 29 22 31 12 84 -20 108 -27 20 -41 21 -330 23 -166 1 -311 -1 -322
-4z"/>
<path d="M2135 4024 c-60 -17 -84 -88 -46 -135 19 -23 24 -24 164 -23 157 0
191 10 202 57 9 34 -11 76 -41 87 -30 12 -249 22 -279 14z"/>
</g>
</svg>
