<?xml version="1.0" standalone="no"?>
<!DOCTYPE svg PUBLIC "-//W3C//DTD SVG 20010904//EN"
 "http://www.w3.org/TR/2001/REC-SVG-20010904/DTD/svg10.dtd">
<svg version="1.0" xmlns="http://www.w3.org/2000/svg"
 width="512.000000pt" height="512.000000pt" viewBox="0 0 512.000000 512.000000"
 preserveAspectRatio="xMidYMid meet">

<g transform="translate(0.000000,512.000000) scale(0.100000,-0.100000)"
fill="#000000" stroke="none">
<path d="M1145 5104 c-50 -27 -1104 -1083 -1126 -1129 -18 -39 -19 -93 -19
-1476 0 -1583 -2 -1534 62 -1687 82 -196 238 -354 429 -432 127 -53 189 -60
512 -60 l294 0 7 -61 c3 -34 6 -80 6 -103 0 -58 29 -106 80 -133 l43 -23 1031
0 c985 0 1033 1 1066 19 57 30 71 59 81 162 5 52 11 104 14 117 l5 22 391 0
c425 0 475 5 606 58 192 78 349 237 431 434 65 156 63 78 60 1949 -4 1902 3
1733 -78 1905 -98 205 -276 357 -500 426 l-75 23 -1645 2 c-1479 2 -1648 1
-1675 -13z m3294 -299 c184 -44 336 -204 370 -389 8 -41 11 -566 11 -1705 0
-1785 2 -1709 -54 -1819 -68 -133 -194 -231 -338 -262 -35 -7 -155 -10 -357
-8 l-305 3 65 73 c152 171 201 238 260 357 67 136 103 260 119 416 13 129 13
891 0 983 -27 185 -163 331 -349 372 -70 16 -123 15 -209 -2 l-32 -6 0 318 c0
238 -4 332 -14 370 -33 126 -122 231 -244 291 -66 33 -84 38 -166 41 -57 2
-110 -2 -142 -11 l-51 -13 -13 35 c-32 90 -126 198 -207 239 -76 39 -151 55
-243 50 -73 -3 -97 -9 -162 -40 -113 -54 -204 -155 -241 -270 -5 -15 -10 -15
-53 -2 -26 8 -80 14 -120 14 -257 0 -454 -206 -454 -475 l0 -51 -72 14 c-248
50 -490 -127 -529 -387 -7 -50 -9 -272 -6 -705 4 -671 6 -696 58 -901 30 -118
52 -177 160 -433 54 -128 102 -243 105 -257 l6 -25 -253 0 c-311 0 -361 11
-479 99 -95 72 -158 167 -185 283 -13 54 -15 257 -15 1411 l0 1347 315 0 c190
0 335 4 367 11 124 26 251 116 314 225 58 99 64 147 64 501 l0 323 1508 0
c1309 0 1515 -2 1571 -15z m-3384 -613 c-7 -40 -59 -101 -102 -118 -24 -10
-87 -14 -235 -14 l-203 0 270 270 270 270 3 -187 c2 -104 0 -203 -3 -221z
m1585 -370 c20 -9 44 -34 57 -57 l23 -40 0 -800 c0 -741 1 -803 18 -835 53
-107 207 -107 263 0 18 33 19 71 19 685 0 599 1 653 18 685 51 103 201 108
262 8 20 -32 20 -53 20 -983 l0 -951 23 -44 c51 -100 192 -108 254 -13 17 25
18 66 23 494 5 453 6 468 26 495 37 50 72 69 124 69 52 0 87 -19 124 -69 21
-27 21 -38 21 -519 l-1 -492 -26 -97 c-15 -54 -46 -135 -70 -180 -41 -80 -131
-202 -178 -243 -39 -34 -138 -162 -180 -235 -64 -110 -101 -212 -135 -372 l-5
-28 -859 0 -859 0 -7 63 c-9 79 -39 223 -63 307 -27 89 -55 161 -155 397 -92
215 -126 319 -154 473 -16 84 -18 168 -18 740 0 594 1 648 17 677 28 50 74 77
133 77 57 0 93 -19 128 -68 22 -31 22 -37 27 -441 5 -370 7 -413 23 -443 53
-96 198 -96 257 0 19 32 20 52 20 684 l0 651 23 43 c55 104 187 107 261 7 21
-28 21 -38 26 -703 l5 -674 37 -36 c67 -68 181 -55 230 25 l23 36 5 815 c5
765 6 818 23 843 41 63 127 85 197 49z"/>
</g>
</svg>
