<?xml version="1.0" standalone="no"?>
<!DOCTYPE svg PUBLIC "-//W3C//DTD SVG 20010904//EN"
 "http://www.w3.org/TR/2001/REC-SVG-20010904/DTD/svg10.dtd">
<svg version="1.0" xmlns="http://www.w3.org/2000/svg"
 width="26.000000pt" height="26.000000pt" viewBox="0 0 26.000000 26.000000"
 preserveAspectRatio="xMidYMid meet">

<g transform="translate(0.000000,26.000000) scale(0.100000,-0.100000)"
fill="#000000" stroke="none">
<path d="M40 130 c0 -123 1 -130 20 -130 18 0 20 7 20 60 l0 60 33 0 c45 0 77
-34 77 -83 0 -30 4 -37 20 -37 17 0 20 7 20 47 0 37 -6 53 -25 73 l-25 27 20
18 c28 26 29 95 0 95 -16 0 -20 -7 -20 -33 0 -42 -26 -67 -68 -67 -32 0 -32 1
-32 50 0 43 -3 50 -20 50 -19 0 -20 -7 -20 -130z"/>
</g>
</svg>
