<?xml version="1.0" standalone="no"?>
<!DOCTYPE svg PUBLIC "-//W3C//DTD SVG 20010904//EN"
 "http://www.w3.org/TR/2001/REC-SVG-20010904/DTD/svg10.dtd">
<svg version="1.0" xmlns="http://www.w3.org/2000/svg"
 width="24.000000pt" height="24.000000pt" viewBox="0 0 24.000000 24.000000"
 preserveAspectRatio="xMidYMid meet">

<g transform="translate(0.000000,24.000000) scale(0.100000,-0.100000)"
fill="#000000" stroke="none">
<path d="M77 194 c-12 -12 -8 -24 7 -24 31 0 30 -13 -8 -102 -14 -34 -15 -38
-1 -38 8 0 23 16 32 35 l17 36 16 -33 c16 -34 50 -51 50 -25 0 9 -3 17 -8 19
-4 2 -19 32 -33 68 -18 47 -30 66 -45 68 -11 2 -23 0 -27 -4z"/>
</g>
</svg>
