<?xml version="1.0" standalone="no"?>
<!DOCTYPE svg PUBLIC "-//W3C//DTD SVG 20010904//EN"
 "http://www.w3.org/TR/2001/REC-SVG-20010904/DTD/svg10.dtd">
<svg version="1.0" xmlns="http://www.w3.org/2000/svg"
 width="24.000000pt" height="24.000000pt" viewBox="0 0 24.000000 24.000000"
 preserveAspectRatio="xMidYMid meet">

<g transform="translate(0.000000,24.000000) scale(0.100000,-0.100000)"
fill="#000000" stroke="none">
<path d="M107 224 c-4 -4 -7 -22 -7 -40 0 -26 -4 -33 -22 -36 -13 -2 -24 -11
-26 -20 -3 -16 5 -18 68 -18 63 0 71 2 68 18 -2 9 -13 18 -25 20 -17 3 -23 11
-25 39 -3 35 -17 51 -31 37z"/>
<path d="M86 64 c-10 -27 -7 -44 9 -44 10 0 15 10 15 30 0 32 -14 40 -24 14z"/>
<path d="M150 41 c0 -12 6 -21 16 -21 9 0 14 7 12 17 -5 25 -28 28 -28 4z"/>
</g>
</svg>
