<?xml version="1.0" standalone="no"?>
<!DOCTYPE svg PUBLIC "-//W3C//DTD SVG 20010904//EN"
 "http://www.w3.org/TR/2001/REC-SVG-20010904/DTD/svg10.dtd">
<svg version="1.0" xmlns="http://www.w3.org/2000/svg"
 width="512.000000pt" height="512.000000pt" viewBox="0 0 512.000000 512.000000"
 preserveAspectRatio="xMidYMid meet">

<g transform="translate(0.000000,512.000000) scale(0.100000,-0.100000)"
fill="#000000" stroke="none">
<path d="M2355 5110 c-618 -55 -1158 -304 -1591 -735 -77 -77 -167 -174 -200
-215 -292 -370 -476 -804 -540 -1270 -23 -169 -23 -491 0 -660 64 -471 245
-895 541 -1271 85 -108 326 -343 435 -425 565 -424 1210 -596 1900 -508 443
57 893 249 1260 538 41 33 138 123 215 200 408 411 652 916 726 1501 18 145
16 473 -5 625 -62 456 -225 850 -510 1230 -87 117 -331 363 -447 453 -366 281
-800 464 -1243 522 -149 19 -410 26 -541 15z m575 -145 c788 -125 1469 -628
1815 -1340 109 -225 182 -455 220 -695 25 -161 31 -475 11 -644 -63 -539 -290
-1020 -666 -1409 -211 -219 -415 -369 -675 -497 -231 -113 -460 -186 -705
-225 -161 -25 -475 -31 -644 -11 -539 63 -1020 290 -1408 665 -217 210 -373
421 -498 676 -115 235 -187 461 -227 715 -25 163 -25 558 0 720 82 513 303
959 662 1329 397 409 888 655 1455 727 142 18 518 12 660 -11z"/>
<path d="M840 2560 l0 -910 210 0 210 0 2 426 3 427 170 -424 170 -424 146 -3
146 -3 164 407 164 407 3 -406 2 -407 210 0 210 0 0 910 0 910 -222 -2 -221
-3 -225 -572 c-124 -315 -228 -573 -231 -573 -3 0 -107 259 -230 575 l-224
575 -229 0 -228 0 0 -910z m648 158 c142 -362 260 -658 263 -658 3 0 122 297
265 660 l259 660 137 0 138 0 0 -820 0 -820 -110 0 -110 0 -2 612 -3 613 -246
-610 -246 -610 -80 -3 -80 -3 -254 632 -254 632 -3 -632 -2 -632 -113 3 -112
3 -3 805 c-1 443 0 811 3 818 3 10 39 12 151 10 l146 -3 256 -657z"/>
<path d="M2840 2560 l0 -910 205 0 205 0 0 360 c0 198 4 360 8 360 4 0 142
-162 306 -360 l298 -360 192 0 193 0 22 51 c11 29 21 56 21 62 0 8 -231 287
-638 773 l-51 61 323 378 324 378 -19 51 c-11 27 -23 54 -25 58 -3 4 -87 8
-188 8 l-182 0 -285 -340 c-156 -187 -287 -340 -291 -340 -5 0 -8 153 -8 340
l0 340 -205 0 -205 0 0 -910z m320 460 l0 -360 60 0 59 0 302 360 302 360 129
0 c123 0 129 -1 116 -18 -7 -10 -155 -184 -328 -386 -173 -202 -316 -370 -318
-374 -1 -5 155 -197 348 -427 192 -231 350 -423 350 -427 0 -5 -60 -8 -134 -8
l-135 0 -306 370 -307 370 -69 0 -69 0 0 -370 0 -370 -115 0 -115 0 0 820 0
820 115 0 115 0 0 -360z"/>
</g>
</svg>
