<?xml version="1.0" standalone="no"?>
<!DOCTYPE svg PUBLIC "-//W3C//DTD SVG 20010904//EN"
 "http://www.w3.org/TR/2001/REC-SVG-20010904/DTD/svg10.dtd">
<svg version="1.0" xmlns="http://www.w3.org/2000/svg"
 width="24.000000pt" height="24.000000pt" viewBox="0 0 24.000000 24.000000"
 preserveAspectRatio="xMidYMid meet">

<g transform="translate(0.000000,24.000000) scale(0.100000,-0.100000)"
fill="#000000" stroke="none">
<path d="M65 197 c-3 -7 -5 -49 -3 -93 2 -62 6 -79 18 -79 8 0 16 10 18 23 2
15 11 22 25 23 54 3 52 1 52 69 0 51 -3 65 -15 65 -11 0 -16 -14 -18 -52 -3
-44 -6 -53 -22 -53 -16 0 -19 9 -22 52 -3 50 -22 76 -33 45z"/>
</g>
</svg>
