<?xml version="1.0" standalone="no"?>
<!DOCTYPE svg PUBLIC "-//W3C//DTD SVG 20010904//EN"
 "http://www.w3.org/TR/2001/REC-SVG-20010904/DTD/svg10.dtd">
<svg version="1.0" xmlns="http://www.w3.org/2000/svg"
 width="48.000000pt" height="48.000000pt" viewBox="0 0 48.000000 48.000000"
 preserveAspectRatio="xMidYMid meet">

<g transform="translate(0.000000,48.000000) scale(0.100000,-0.100000)"
fill="#000000" stroke="none">
<path d="M90 325 c0 -45 0 -45 34 -45 28 0 38 6 53 30 9 17 20 30 24 30 3 0
18 -22 33 -50 30 -55 40 -60 56 -30 8 15 21 20 55 20 l45 0 0 45 0 45 -150 0
-150 0 0 -45z"/>
<path d="M182 285 c-10 -21 -19 -25 -52 -25 l-40 0 0 -45 0 -45 150 0 150 0 0
45 0 45 -39 0 c-34 0 -43 -5 -58 -30 -9 -16 -20 -30 -23 -30 -3 0 -20 25 -38
55 -18 30 -34 55 -36 55 -2 0 -8 -11 -14 -25z"/>
</g>
</svg>
